<svg xmlns="http://www.w3.org/2000/svg" viewBox="0 0 600 400" preserveAspectRatio="xMidYMid slice">
  <defs>
    <linearGradient id="sky" x1="0" y1="0" x2="0" y2="1">
      <stop offset="0%" stop-color="#0f172a" />
      <stop offset="100%" stop-color="#0f172a" stop-opacity="0.85" />
    </linearGradient>
    <linearGradient id="sun" x1="0" y1="0" x2="1" y2="1">
      <stop offset="0%" stop-color="#38bdf8" />
      <stop offset="100%" stop-color="#0ea5e9" />
    </linearGradient>
  </defs>
  <rect width="600" height="400" fill="#0f172a" />
  <circle cx="460" cy="100" r="70" fill="url(#sun)" opacity="0.8" />
  <path d="M0 320 L600 320 L600 400 L0 400 Z" fill="#020617" />
  <path d="M0 280 C150 250 250 260 400 220 C520 190 600 200 600 220 L600 320 L0 320 Z" fill="#082d51" />
  <path d="M120 320 L220 220 L300 280 L360 220 L420 280 L520 220 L520 320 Z" fill="#134e7a" />
  <path d="M190 240 L240 190 L290 240 Z" fill="#38bdf8" opacity="0.9" />
  <path d="M320 250 L360 210 L400 250 Z" fill="#38bdf8" opacity="0.9" />
  <text x="50%" y="365" text-anchor="middle" font-family="Inter, sans-serif" font-size="34" fill="#e2e8f0">Ardhi Plus</text>
</svg>
